<?xml version="1.0" standalone="no"?>
<!DOCTYPE svg PUBLIC "-//W3C//DTD SVG 20010904//EN"
 "http://www.w3.org/TR/2001/REC-SVG-20010904/DTD/svg10.dtd">
<svg version="1.0" xmlns="http://www.w3.org/2000/svg"
 width="700.000000pt" height="700.000000pt" viewBox="0 0 700.000000 700.000000"
 preserveAspectRatio="xMidYMid meet">
<metadata>
Created by potrace 1.14, written by Peter Selinger 2001-2017
</metadata>
<g transform="translate(0.000000,700.000000) scale(0.100000,-0.100000)"
fill="#000000" stroke="none">
<path d="M3255 6993 c-16 -1 -79 -8 -140 -14 -90 -9 -255 -36 -395 -65 -129
-27 -321 -86 -486 -149 -1018 -393 -1800 -1252 -2097 -2305 -34 -121 -73 -287
-82 -353 -2 -17 -7 -50 -10 -72 -3 -22 -10 -67 -15 -100 -38 -247 -31 -709 14
-970 3 -17 12 -68 20 -115 89 -509 341 -1073 671 -1495 204 -262 487 -538 698
-682 23 -15 50 -35 59 -43 40 -36 306 -194 438 -261 317 -160 742 -293 1065
-334 22 -3 56 -7 75 -10 208 -31 675 -25 889 10 20 4 54 8 76 11 22 3 41 7 42
8 2 2 -26 38 -63 82 -121 146 -212 301 -274 469 -19 50 -36 93 -39 96 -3 4
-112 9 -241 12 -129 3 -248 8 -265 11 -25 4 -112 15 -165 22 -8 1 -51 9 -95
18 -44 9 -91 18 -105 21 -23 4 -103 27 -215 62 -95 29 -280 105 -380 156 -281
142 -504 304 -726 526 -348 350 -572 729 -713 1207 -15 50 -29 100 -31 112
-32 146 -47 232 -59 337 -15 130 -18 180 -17 310 0 129 8 293 17 339 2 10 6
44 9 75 17 148 84 406 158 606 71 191 259 537 360 661 9 10 44 55 78 99 78
100 298 321 404 407 295 237 611 405 965 511 114 35 319 80 415 91 28 4 66 9
85 12 19 3 130 7 245 9 206 3 346 -4 455 -25 30 -6 66 -12 80 -14 272 -42 609
-163 875 -314 324 -183 582 -406 838 -723 37 -46 187 -267 187 -277 0 -4 7
-15 14 -24 12 -17 16 -17 72 3 113 39 293 54 429 35 57 -8 207 -52 260 -77 25
-12 48 -20 50 -17 3 2 -6 27 -19 54 -13 27 -36 76 -52 109 -48 104 -153 286
-232 404 -43 63 -81 122 -87 130 -5 9 -12 18 -15 21 -3 3 -28 34 -55 70 -142
187 -383 430 -584 588 -238 189 -531 363 -781 467 -36 15 -78 33 -95 40 -96
44 -454 151 -565 170 -19 3 -53 10 -75 15 -22 5 -62 12 -90 15 -27 4 -57 8
-65 10 -8 3 -42 7 -75 10 -33 4 -76 9 -95 11 -41 6 -500 12 -545 7z"/>
<path d="M3135 4025 l0 -1225 1041 0 c825 0 1043 3 1046 13 2 6 3 163 3 347
l-1 335 -697 3 -697 2 0 875 0 875 -348 0 -347 0 0 -1225z"/>
<path d="M5580 4300 c-5 -3 -7 -107 -5 -230 7 -374 23 -1457 29 -1931 l3 -176
-72 33 c-68 31 -199 74 -275 89 -70 14 -274 13 -342 -1 -450 -94 -754 -479
-742 -939 3 -107 11 -201 20 -244 45 -197 126 -350 258 -484 115 -115 263
-201 431 -248 69 -20 103 -23 255 -23 197 0 311 16 451 64 148 51 238 107 339
211 124 127 197 290 226 509 4 30 8 676 8 1435 l1 1380 415 0 415 0 0 280 0
280 -703 0 c-387 0 -708 -2 -712 -5z m-348 -2810 c121 -33 228 -119 285 -227
94 -179 61 -393 -82 -536 -242 -242 -652 -129 -750 205 -16 56 -21 157 -10
208 25 120 112 241 218 303 95 56 233 75 339 47z"/>
</g>
</svg>
