<svg xmlns="http://www.w3.org/2000/svg" viewBox="0 0 20.1 20"><defs><style>.a{fill:#0f172a;}</style></defs><path class="a" d="M12.63,19.57c-.21,0-.42,0-.63,0a8,8,0,1,1,6.9-12,2.82,2.82,0,0,1,1-.19,2.93,2.93,0,0,1,1.32.33A10,10,0,1,0,12,21.6a9.85,9.85,0,0,0,1.73-.16A4.53,4.53,0,0,1,12.63,19.57Z" transform="translate(-2 -1.6)"/><polygon class="a" points="9 5 9 12 15 12 15 11.9 15 10 11 10 11 5 9 5"/><path class="a" d="M18.1,16,18,9.3h4.1v1.6H19.7v7.6c0,1.5-.8,2.7-3,2.7A2.69,2.69,0,0,1,14,18.5a2.63,2.63,0,0,1,2.7-2.9A3.26,3.26,0,0,1,18.1,16Zm-1.4,3.9a1.3,1.3,0,1,0-1.3-1.3A1.32,1.32,0,0,0,16.7,19.9Z" transform="translate(-2 -1.6)"/></svg>